<?xml version="1.0" encoding="utf-8"?>
<!-- Generator: Adobe Illustrator 24.0.1, SVG Export Plug-In . SVG Version: 6.00 Build 0)  -->
<svg version="1.1" id="Layer_1" xmlns="http://www.w3.org/2000/svg" xmlns:xlink="http://www.w3.org/1999/xlink" x="0px" y="0px"
	 viewBox="0 0 90 120" style="enable-background:new 0 0 90 120;" xml:space="preserve">
<style type="text/css">
	.st0{fill:none;stroke:#480E2A;stroke-width:2;stroke-linecap:round;stroke-linejoin:round;}
</style>
<g>
	<g>
		<line class="st0" x1="70.3" y1="89.2" x2="20.9" y2="89.2"/>
		<path class="st0" d="M61.8,89.2c0-6.6-4.6-11.9-10.4-11.9c-5.8,0-10.4,5.3-10.4,11.9"/>
		<path class="st0" d="M19.7,72.5C31.2,84,47,81.1,58.5,69.6s14.4-27.3,2.9-38.8L19.7,72.5z"/>
		<polyline class="st0" points="33.7,58.5 31.5,42.6 47.6,44.6 		"/>
		<path class="st0" d="M30.8,36.5L30.8,36.5c-1.5-1.5-3.9-1.5-5.4,0s-1.5,3.9,0,5.4s3.9,1.5,5.4,0S32.3,38,30.8,36.5"/>
	</g>
</g>
</svg>
