<?xml version="1.0" encoding="utf-8"?>
<!-- Generator: Adobe Illustrator 24.0.1, SVG Export Plug-In . SVG Version: 6.00 Build 0)  -->
<svg version="1.1" id="Layer_1" xmlns="http://www.w3.org/2000/svg" xmlns:xlink="http://www.w3.org/1999/xlink" x="0px" y="0px"
	 viewBox="0 0 90 120" style="enable-background:new 0 0 90 120;" xml:space="preserve">
<style type="text/css">
	.st0{fill:none;stroke:#480E2A;stroke-width:2;stroke-linecap:round;stroke-linejoin:round;}
</style>
<g>
	<g>
		<line class="st0" x1="30.7" y1="44.3" x2="10.6" y2="95.6"/>
		<line class="st0" x1="30.7" y1="44.3" x2="50.8" y2="95.6"/>
		<line class="st0" x1="30.7" y1="95.6" x2="30.7" y2="44.3"/>
		<line class="st0" x1="30.7" y1="73.9" x2="21" y2="69"/>
		<line class="st0" x1="30.8" y1="86.5" x2="17" y2="79.3"/>
		<line class="st0" x1="30.6" y1="73.9" x2="40.3" y2="69"/>
		<line class="st0" x1="30.5" y1="86.5" x2="44.3" y2="79.3"/>
		<path class="st0" d="M36.1,38.2c0-3-2.4-5.4-5.4-5.4l0,0c-3,0-5.4,2.4-5.4,5.4s2.4,5.4,5.4,5.4S36.1,41.2,36.1,38.2L36.1,38.2z"/>
		<path class="st0" d="M22.4,30c-8.6,9.7,0,17.3,0,17.3"/>
		<path class="st0" d="M16.7,24.4c-14.8,14.8,0,29,0,29"/>
		<path class="st0" d="M38.8,30c8.6,9.7,0,17.3,0,17.3"/>
		<path class="st0" d="M44.5,24.4c14.8,14.8,0,29,0,29"/>
	</g>
</g>
</svg>
