<?xml version="1.0" encoding="utf-8"?>
<!-- Generator: Adobe Illustrator 24.0.1, SVG Export Plug-In . SVG Version: 6.00 Build 0)  -->
<svg version="1.1" id="Layer_1" xmlns="http://www.w3.org/2000/svg" xmlns:xlink="http://www.w3.org/1999/xlink" x="0px" y="0px"
	 viewBox="0 0 90 120" style="enable-background:new 0 0 90 120;" xml:space="preserve">
<style type="text/css">
	.st0{fill:none;stroke:#480E2A;stroke-width:2;stroke-linecap:round;stroke-linejoin:round;}
</style>
<g>
	<g>
		<g>
			<g>
				<g>
					<path class="st0" d="M73.8,73.5c0,0-3.3,5.6-3.3,7.6c0,0.3,0,0.5,0,0.8c0.2,1.8,1.9,3.1,3.7,2.9c1.8-0.2,3.1-1.9,2.9-3.7
						C77.1,79.1,73.8,73.5,73.8,73.5z"/>
					<line class="st0" x1="47.1" y1="59.3" x2="40.1" y2="59.3"/>
					<line class="st0" x1="43.6" y1="67.3" x2="43.6" y2="59.3"/>
					<polyline class="st0" points="64.2,68.5 56.7,94.1 35.9,94.1 35.9,67.7 51.2,67.7 54.4,72.4 69.9,66.2 72.5,69.5 					"/>
					<path class="st0" d="M35.8,90.5c-6.5,0-6.5,0-13,0c-2.5,0-4.6-1.8-5-4.3v-39c-0.1-1.6,0.4-3.1,1.5-4.2c3.7-3.7,7.4-7.3,11-11
						c1.1-1.2,2.7-1.8,4.3-1.8c7,0,13.9,0,20.9,0c2.5-0.1,4.7,1.6,5.2,4c0.1,0.6,0.2,1.2,0.2,1.8v33.8 M54.1,37.4c0-0.1,0-0.2,0-0.3
						c-0.1-1-1-1.8-2-1.7h-2.9H37.9c-0.1,0-0.2,0-0.3,0c-1.1,0.1-1.8,1-1.7,2c0,0.3,0,0.7,0,1.1c0,0.1,0,0.3,0,0.4
						c0.1,1,1,1.7,2,1.6H45h7.3c0.1,0,0.1,0,0.2,0c1-0.1,1.7-0.9,1.7-1.9C54.2,38.1,54.2,37.7,54.1,37.4z"/>
					<polygon class="st0" points="26.1,30.2 17.3,39 20.3,42 29.1,33.3 					"/>
					<polyline class="st0" points="19.5,36.7 14.3,31.5 18.6,27.2 23.8,32.4 					"/>
					<line class="st0" x1="19.9" y1="25.9" x2="12.9" y2="32.9"/>
				</g>
			</g>
		</g>
	</g>
</g>
</svg>
