<?xml version="1.0" encoding="utf-8"?>
<!-- Generator: Adobe Illustrator 24.0.1, SVG Export Plug-In . SVG Version: 6.00 Build 0)  -->
<svg version="1.1" id="Layer_1" xmlns="http://www.w3.org/2000/svg" xmlns:xlink="http://www.w3.org/1999/xlink" x="0px" y="0px"
	 viewBox="0 0 90 120" style="enable-background:new 0 0 90 120;" xml:space="preserve">
<style type="text/css">
	.st0{fill:none;stroke:#480E2A;stroke-width:2;stroke-linecap:round;stroke-linejoin:round;stroke-miterlimit:3.9994;}
</style>
<g>
	<g>
		<g>
			<g>
				<g>
					<path class="st0" d="M45,54.5L45,54.5c-2.6,0-4.7,2.1-4.7,4.7c0,2.6,2.1,4.7,4.7,4.7s4.7-2.1,4.7-4.7
						C49.7,56.6,47.6,54.5,45,54.5z"/>
					<path class="st0" d="M61.8,59.2c0-6-3.2-11.6-8.5-14.6"/>
					<path class="st0" d="M36.7,44.6c-5.2,3-8.5,8.5-8.5,14.6"/>
					<path class="st0" d="M45,28.4c-2.6,0-4.7,5.7-4.7,13s2.1,13.1,4.7,13.1s4.7-5.8,4.7-13.1C49.7,34.2,47.6,28.4,45,28.4z"/>
					<path class="st0" d="M41.1,61.9c-1.2-2.3-7.4-1.3-13.8,2c-6.4,3.3-10.6,7.9-9.4,10.2c1.2,2.3,7.4,1.4,13.8-1.9
						C38.1,68.8,42.3,64.2,41.1,61.9z"/>
					<path class="st0" d="M48.9,61.9c1.2-2.3,7.4-1.3,13.8,2c6.4,3.3,10.6,7.9,9.4,10.2c-1.2,2.3-7.4,1.4-13.8-1.9
						C51.9,68.8,47.7,64.2,48.9,61.9z"/>
					<line class="st0" x1="45.1" y1="91.6" x2="45.1" y2="64.7"/>
					<line class="st0" x1="53.3" y1="91.6" x2="36.9" y2="91.6"/>
				</g>
			</g>
		</g>
	</g>
</g>
</svg>
