<?xml version="1.0" encoding="utf-8"?>
<!-- Generator: Adobe Illustrator 24.0.1, SVG Export Plug-In . SVG Version: 6.00 Build 0)  -->
<svg version="1.1" id="Layer_1" xmlns="http://www.w3.org/2000/svg" xmlns:xlink="http://www.w3.org/1999/xlink" x="0px" y="0px"
	 viewBox="0 0 90 120" style="enable-background:new 0 0 90 120;" xml:space="preserve">
<style type="text/css">
	.st0{fill:none;stroke:#480E2A;stroke-width:2;stroke-linecap:round;stroke-linejoin:round;}
</style>
<g>
	<g>
		<g>
			<g>
				<g id="XMLID_1_">
					<path class="st0" d="M14.2,35.6c-5.3,17.9,3.9,28.9,3.9,28.9l5.7-0.8L19.7,35L14.2,35.6z"/>
					<line class="st0" x1="58.4" y1="40.5" x2="21.3" y2="45.5"/>
					<line class="st0" x1="22.2" y1="52.1" x2="58.9" y2="47"/>
					<rect x="23.1" y="86.9" class="st0" width="31.1" height="4.2"/>
					<path class="st0" d="M60,29.4c0.1,3.9-1.6,11.1-1.6,11.1l0.5,6.6c4.8,5.2,4.4,10.2,4.4,10.2h3.3c2.5-9.7,1.1-19.9-3.9-28.6
						L60,29.4z"/>
					<polyline class="st0" points="34.8,51.3 28.3,86.9 46.5,74.4 33.1,62.9 41.5,53 					"/>
					<line class="st0" x1="49.1" y1="86.9" x2="41.5" y2="50"/>
				</g>
			</g>
		</g>
	</g>
</g>
</svg>
