<?xml version="1.0" encoding="utf-8"?>
<!-- Generator: Adobe Illustrator 24.0.1, SVG Export Plug-In . SVG Version: 6.00 Build 0)  -->
<svg version="1.1" id="Layer_1" xmlns="http://www.w3.org/2000/svg" xmlns:xlink="http://www.w3.org/1999/xlink" x="0px" y="0px"
	 viewBox="0 0 90 120" style="enable-background:new 0 0 90 120;" xml:space="preserve">
<style type="text/css">
	.st0{fill:none;stroke:#480E2A;stroke-width:2;stroke-linecap:round;stroke-linejoin:round;}
</style>
<g id="Nuevo_símbolo_183">
	<g>
		<g>
			<path class="st0" d="M59.9,51.3c0.9-0.3,1.8-0.5,2.7-0.5h1.6c4.2,0,7.7,3.4,7.7,7.7v22.4c0,1.2-0.2,2.4-0.8,3.5H60.3"/>
			<path class="st0" d="M18,84.4V54.8c0-10.6,8.6-19.2,19.2-19.2h3.9c10.6,0,19.2,8.6,19.2,19.2v29.6C60.3,84.4,18,84.4,18,84.4z"/>
			<line class="st0" x1="26.2" y1="79.1" x2="26.2" y2="35.9"/>
			<line class="st0" x1="38" y1="79.1" x2="38" y2="35.9"/>
			<line class="st0" x1="38" y1="49.5" x2="26.2" y2="49.5"/>
			<line class="st0" x1="38" y1="40.9" x2="26.2" y2="40.9"/>
			<line class="st0" x1="38" y1="58.1" x2="26.2" y2="58.1"/>
			<line class="st0" x1="38" y1="66.7" x2="26.2" y2="66.7"/>
			<line class="st0" x1="38" y1="75.4" x2="26.2" y2="75.4"/>
		</g>
	</g>
</g>
</svg>
