<?xml version="1.0" encoding="utf-8"?>
<!-- Generator: Adobe Illustrator 24.0.1, SVG Export Plug-In . SVG Version: 6.00 Build 0)  -->
<svg version="1.1" id="Layer_1" xmlns="http://www.w3.org/2000/svg" xmlns:xlink="http://www.w3.org/1999/xlink" x="0px" y="0px"
	 viewBox="0 0 90 120" style="enable-background:new 0 0 90 120;" xml:space="preserve">
<style type="text/css">
	.st0{fill:none;stroke:#480E2A;stroke-width:2;stroke-linecap:round;stroke-linejoin:round;}
</style>
<g>
	<g>
		<path class="st0" d="M45,29.6c-12.7,0-22.9,3.2-22.9,7.2S32.3,44,45,44s22.9-3.2,22.9-7.2C67.9,32.9,57.7,29.6,45,29.6z"/>
		<path class="st0" d="M22.1,83.2c0,4,10.2,7.2,22.9,7.2s22.9-3.2,22.9-7.2"/>
		<line class="st0" x1="67.9" y1="37.5" x2="67.9" y2="83.5"/>
		<line class="st0" x1="22.1" y1="83.5" x2="22.1" y2="37.5"/>
		<line class="st0" x1="46" y1="83.2" x2="46" y2="44.3"/>
		<line class="st0" x1="56.8" y1="83.2" x2="56.8" y2="43.8"/>
		<line class="st0" x1="56.8" y1="56.2" x2="46" y2="56.2"/>
		<line class="st0" x1="56.8" y1="48.4" x2="46" y2="48.4"/>
		<line class="st0" x1="56.8" y1="64.1" x2="46" y2="64.1"/>
		<line class="st0" x1="56.8" y1="71.9" x2="46" y2="71.9"/>
		<line class="st0" x1="56.8" y1="79.8" x2="46" y2="79.8"/>
	</g>
</g>
</svg>
