<?xml version="1.0" encoding="utf-8"?>
<!-- Generator: Adobe Illustrator 24.0.1, SVG Export Plug-In . SVG Version: 6.00 Build 0)  -->
<svg version="1.1" id="Layer_1" xmlns="http://www.w3.org/2000/svg" xmlns:xlink="http://www.w3.org/1999/xlink" x="0px" y="0px"
	 viewBox="0 0 90 120" style="enable-background:new 0 0 90 120;" xml:space="preserve">
<style type="text/css">
	.st0{fill:none;stroke:#480E2A;stroke-width:2;stroke-linecap:round;stroke-linejoin:round;}
</style>
<g>
	<g>
		<g>
			<g>
				<g>
					<g>
						<path class="st0" d="M47.7,64.7c3.4,10-2,20.8-11.9,24.1s-20.6-1.8-24-11.9s2-20.8,11.9-24.1v-5.9h2.4v-3.7h7.3v3.7h2.4v5.9
							C41.4,54.6,45.8,59.1,47.7,64.7z"/>
						<line class="st0" x1="11.2" y1="67.6" x2="31" y2="67.6"/>
						<line class="st0" x1="11.2" y1="72.6" x2="19.7" y2="72.6"/>
						<line class="st0" x1="58.7" y1="69.2" x2="67.2" y2="69.2"/>
						<polyline class="st0" points="29.7,89.9 67.3,89.9 67.3,69.3 71.1,65.7 71.1,61 46.3,61 						"/>
						<path class="st0" d="M30.5,43v-2.6c0-1.8-1.5-3.2-3.2-3.2h-6.8c-1.8,0-3.2,1.5-3.2,3.2v15.2"/>
						<path class="st0" d="M46.5,35.6V33c0.1-1.7,1.5-3.1,3.2-3.1h6.8l0,0c1.8,0,3.2,1.5,3.2,3.2v27.3"/>
						<path class="st0" d="M40.3,54.9v-9.3c0-2,1-3.9,2.6-5.1v-4.6h7.5v4.6c1.6,1.2,2.6,3.1,2.6,5.1V61"/>
						<line class="st0" x1="58.7" y1="47.5" x2="53.1" y2="47.5"/>
						<line class="st0" x1="58.7" y1="54.3" x2="53.1" y2="54.3"/>
					</g>
				</g>
			</g>
		</g>
	</g>
</g>
</svg>
