<?xml version="1.0" encoding="utf-8"?>
<!-- Generator: Adobe Illustrator 24.0.1, SVG Export Plug-In . SVG Version: 6.00 Build 0)  -->
<svg version="1.1" id="Layer_1" xmlns="http://www.w3.org/2000/svg" xmlns:xlink="http://www.w3.org/1999/xlink" x="0px" y="0px"
	 viewBox="0 0 90 120" style="enable-background:new 0 0 90 120;" xml:space="preserve">
<style type="text/css">
	.st0{fill:none;stroke:#480E2A;stroke-width:2;stroke-linecap:round;stroke-linejoin:round;}
</style>
<g>
	<g>
		<path class="st0" d="M67,57.8c-5.4,5.4-12.8,4-18.2-1.3S42,43.7,47.4,38.3L67,57.8z"/>
		<polyline class="st0" points="60.4,51.3 61.5,43.8 53.9,44.8 		"/>
		<path class="st0" d="M61.7,40.9C61.8,40.9,61.8,40.9,61.7,40.9c0.8-0.7,1.9-0.7,2.6,0c0.7,0.7,0.7,1.9,0,2.6
			c-0.7,0.7-1.9,0.7-2.6,0C61,42.8,61,41.6,61.7,40.9"/>
		<path class="st0" d="M49.2,67.6L37.7,56L24.3,69.6c-4.8,4.8-4.9,10.1-1.7,13.2c3.2,3.1,8.4,3,13.2-1.8L49.2,67.6z"/>
		<line class="st0" x1="63.2" y1="91.4" x2="45.1" y2="73.2"/>
		<line class="st0" x1="32.1" y1="60.2" x2="14.1" y2="42.3"/>
		<polygon class="st0" points="31,49.6 18.7,37.3 9.1,46.8 21.4,59.2 		"/>
		<line class="st0" x1="13.3" y1="50.9" x2="22.8" y2="41.5"/>
		<line class="st0" x1="17.4" y1="55" x2="26.8" y2="45.6"/>
		<polygon class="st0" points="68,86.6 55.7,74.3 46.1,83.9 58.4,96.2 		"/>
		<line class="st0" x1="50.3" y1="87.9" x2="59.8" y2="78.5"/>
		<line class="st0" x1="54.4" y1="92" x2="63.8" y2="82.6"/>
		<line class="st0" x1="44.4" y1="60.8" x2="48.7" y2="56.5"/>
		<path class="st0" d="M75,41L75,41c0.3-6.2-4.4-11.4-10.6-11.7"/>
		<path class="st0" d="M80.3,41L80.3,41c0.3-9-6.7-16.5-15.6-16.8"/>
		<path class="st0" d="M69.5,40.4c0.1-2.7-2-5-4.7-5.1"/>
	</g>
</g>
</svg>
